solid OpenSCAD_Model
  facet normal 0 0 -1
    outer loop
      vertex 10 0 0
      vertex -10 0 0
      vertex -10 10 0
    endloop
  endfacet
  facet normal 0 0 -1
    outer loop
      vertex 10 0 0
      vertex -10 10 0
      vertex 10 10 0
    endloop
  endfacet
  facet normal 0 0 1
    outer loop
      vertex -0.1 0.1 10
      vertex -0.1 0 10
      vertex 0.1 0 10
    endloop
  endfacet
  facet normal 0 0 1
    outer loop
      vertex 0.1 0.1 10
      vertex -0.1 0.1 10
      vertex 0.1 0 10
    endloop
  endfacet
  facet normal 0 -1 0
    outer loop
      vertex 10 0 0
      vertex -0.1 0 10
      vertex -10 0 0
    endloop
  endfacet
  facet normal 0 -1 0
    outer loop
      vertex 10 0 0
      vertex 0.1 0 10
      vertex -0.1 0 10
    endloop
  endfacet
  facet normal 0.710651 0 0.703545
    outer loop
      vertex 10 10 0
      vertex 0.1 0.1 10
      vertex 10 0 0
    endloop
  endfacet
  facet normal 0.710651 -0 0.703545
    outer loop
      vertex 0.1 0 10
      vertex 10 0 0
      vertex 0.1 0.1 10
    endloop
  endfacet
  facet normal -0 0.710651 0.703545
    outer loop
      vertex -10 10 0
      vertex 0.1 0.1 10
      vertex 10 10 0
    endloop
  endfacet
  facet normal 0 0.710651 0.703545
    outer loop
      vertex -10 10 0
      vertex -0.1 0.1 10
      vertex 0.1 0.1 10
    endloop
  endfacet
  facet normal -0.710651 0 0.703545
    outer loop
      vertex -10 0 0
      vertex -0.1 0.1 10
      vertex -10 10 0
    endloop
  endfacet
  facet normal -0.710651 0 0.703545
    outer loop
      vertex -10 0 0
      vertex -0.1 0 10
      vertex -0.1 0.1 10
    endloop
  endfacet
endsolid OpenSCAD_Model
