solid OpenSCAD_Model
  facet normal 0 0 -1
    outer loop
      vertex 5 -2.5 0
      vertex 3.93555 0.23793 0
      vertex 4.22745 0.122345 0
    endloop
  endfacet
  facet normal 0 0 -1
    outer loop
      vertex 4.84302 0.00492859 0
      vertex 5 0.00492859 0
      vertex 5 -2.5 0
    endloop
  endfacet
  facet normal 0 0 -1
    outer loop
      vertex 5 -2.5 0
      vertex 3.66043 0.389175 0
      vertex 3.93555 0.23793 0
    endloop
  endfacet
  facet normal -0 -0 -1
    outer loop
      vertex 4.84302 0.00492859 0
      vertex 5 -2.5 0
      vertex 4.53154 0.044281 0
    endloop
  endfacet
  facet normal 0 0 -1
    outer loop
      vertex 5 -2.5 0
      vertex 4.22745 0.122345 0
      vertex 4.53154 0.044281 0
    endloop
  endfacet
  facet normal 0 0 -1
    outer loop
      vertex 0 -2.5 0
      vertex 3.40643 0.573715 0
      vertex 3.66043 0.389175 0
    endloop
  endfacet
  facet normal 0 0 -1
    outer loop
      vertex 0 -2.5 0
      vertex 3.17757 0.78862 0
      vertex 3.40643 0.573715 0
    endloop
  endfacet
  facet normal 0 -0 -1
    outer loop
      vertex 2.80922 1.29561 0
      vertex 2.97745 1.03053 0
      vertex 0 -2.5 0
    endloop
  endfacet
  facet normal 0 0 -1
    outer loop
      vertex 0 2.5 0
      vertex 2.80922 1.29561 0
      vertex 0 -2.5 0
    endloop
  endfacet
  facet normal 0 0 -1
    outer loop
      vertex 0 -2.5 0
      vertex 2.97745 1.03053 0
      vertex 3.17757 0.78862 0
    endloop
  endfacet
  facet normal 0 0 -1
    outer loop
      vertex 2.80922 1.29561 0
      vertex 0 2.5 0
      vertex 2.67555 1.57968 0
    endloop
  endfacet
  facet normal 0 0 -1
    outer loop
      vertex 2.67555 1.57968 0
      vertex 0 2.5 0
      vertex 2.57854 1.87827 0
    endloop
  endfacet
  facet normal 0 0 -1
    outer loop
      vertex 2.57854 1.87827 0
      vertex 0 2.5 0
      vertex 2.5197 2.18666 0
    endloop
  endfacet
  facet normal 0 0 -1
    outer loop
      vertex 2.5197 2.18666 0
      vertex 0 2.5 0
      vertex 2.5 2.5 0
    endloop
  endfacet
  facet normal 0 0 -1
    outer loop
      vertex 5 -2.5 0
      vertex 0 -2.5 0
      vertex 3.66043 0.389175 0
    endloop
  endfacet
  facet normal 0 0 1
    outer loop
      vertex 4.22745 0.122345 10
      vertex 3.93555 0.23793 10
      vertex 5 -2.5 10
    endloop
  endfacet
  facet normal 0 -0 1
    outer loop
      vertex 5 -2.5 10
      vertex 5 0.00492859 10
      vertex 4.84302 0.00492859 10
    endloop
  endfacet
  facet normal 0 0 1
    outer loop
      vertex 3.93555 0.23793 10
      vertex 3.66043 0.389175 10
      vertex 5 -2.5 10
    endloop
  endfacet
  facet normal 0 0 1
    outer loop
      vertex 4.53154 0.044281 10
      vertex 5 -2.5 10
      vertex 4.84302 0.00492859 10
    endloop
  endfacet
  facet normal 0 0 1
    outer loop
      vertex 4.53154 0.044281 10
      vertex 4.22745 0.122345 10
      vertex 5 -2.5 10
    endloop
  endfacet
  facet normal 0 0 1
    outer loop
      vertex 3.66043 0.389175 10
      vertex 3.40643 0.573715 10
      vertex 0 -2.5 10
    endloop
  endfacet
  facet normal 0 0 1
    outer loop
      vertex 3.40643 0.573715 10
      vertex 3.17757 0.78862 10
      vertex 0 -2.5 10
    endloop
  endfacet
  facet normal 0 0 1
    outer loop
      vertex 0 -2.5 10
      vertex 2.97745 1.03053 10
      vertex 2.80922 1.29561 10
    endloop
  endfacet
  facet normal 0 0 1
    outer loop
      vertex 0 -2.5 10
      vertex 2.80922 1.29561 10
      vertex 0 2.5 10
    endloop
  endfacet
  facet normal 0 0 1
    outer loop
      vertex 3.17757 0.78862 10
      vertex 2.97745 1.03053 10
      vertex 0 -2.5 10
    endloop
  endfacet
  facet normal 0 0 1
    outer loop
      vertex 2.67555 1.57968 10
      vertex 0 2.5 10
      vertex 2.80922 1.29561 10
    endloop
  endfacet
  facet normal 0 0 1
    outer loop
      vertex 2.57854 1.87827 10
      vertex 0 2.5 10
      vertex 2.67555 1.57968 10
    endloop
  endfacet
  facet normal 0 0 1
    outer loop
      vertex 2.5197 2.18666 10
      vertex 0 2.5 10
      vertex 2.57854 1.87827 10
    endloop
  endfacet
  facet normal 0 0 1
    outer loop
      vertex 2.5 2.5 10
      vertex 0 2.5 10
      vertex 2.5197 2.18666 10
    endloop
  endfacet
  facet normal 0 0 1
    outer loop
      vertex 3.66043 0.389175 10
      vertex 0 -2.5 10
      vertex 5 -2.5 10
    endloop
  endfacet
  facet normal 0 1 0
    outer loop
      vertex 4.84302 0.00492859 0
      vertex 5 0.00492859 10
      vertex 5 0.00492859 0
    endloop
  endfacet
  facet normal 0 1 0
    outer loop
      vertex 4.84302 0.00492859 0
      vertex 4.84302 0.00492859 10
      vertex 5 0.00492859 10
    endloop
  endfacet
  facet normal 0.125344 0.992113 0
    outer loop
      vertex 4.53154 0.044281 0
      vertex 4.84302 0.00492859 10
      vertex 4.84302 0.00492859 0
    endloop
  endfacet
  facet normal 0.125344 0.992113 -0
    outer loop
      vertex 4.53154 0.044281 0
      vertex 4.53154 0.044281 10
      vertex 4.84302 0.00492859 10
    endloop
  endfacet
  facet normal 0.248651 0.968593 0
    outer loop
      vertex 4.22745 0.122345 0
      vertex 4.53154 0.044281 10
      vertex 4.53154 0.044281 0
    endloop
  endfacet
  facet normal 0.248651 0.968593 -0
    outer loop
      vertex 4.22745 0.122345 0
      vertex 4.22745 0.122345 10
      vertex 4.53154 0.044281 10
    endloop
  endfacet
  facet normal 0.368162 0.929762 0
    outer loop
      vertex 3.93555 0.23793 0
      vertex 4.22745 0.122345 10
      vertex 4.22745 0.122345 0
    endloop
  endfacet
  facet normal 0.368162 0.929762 -0
    outer loop
      vertex 3.93555 0.23793 0
      vertex 3.93555 0.23793 10
      vertex 4.22745 0.122345 10
    endloop
  endfacet
  facet normal 0.481745 0.876311 0
    outer loop
      vertex 3.66043 0.389175 0
      vertex 3.93555 0.23793 10
      vertex 3.93555 0.23793 0
    endloop
  endfacet
  facet normal 0.481745 0.876311 -0
    outer loop
      vertex 3.66043 0.389175 0
      vertex 3.66043 0.389175 10
      vertex 3.93555 0.23793 10
    endloop
  endfacet
  facet normal 0.587781 0.80902 0
    outer loop
      vertex 3.40643 0.573715 0
      vertex 3.66043 0.389175 10
      vertex 3.66043 0.389175 0
    endloop
  endfacet
  facet normal 0.587781 0.80902 -0
    outer loop
      vertex 3.40643 0.573715 0
      vertex 3.40643 0.573715 10
      vertex 3.66043 0.389175 10
    endloop
  endfacet
  facet normal 0.684532 0.728983 0
    outer loop
      vertex 3.17757 0.78862 0
      vertex 3.40643 0.573715 10
      vertex 3.40643 0.573715 0
    endloop
  endfacet
  facet normal 0.684532 0.728983 -0
    outer loop
      vertex 3.17757 0.78862 0
      vertex 3.17757 0.78862 10
      vertex 3.40643 0.573715 10
    endloop
  endfacet
  facet normal 0.770522 0.637414 0
    outer loop
      vertex 2.97745 1.03053 0
      vertex 3.17757 0.78862 10
      vertex 3.17757 0.78862 0
    endloop
  endfacet
  facet normal 0.770522 0.637414 -0
    outer loop
      vertex 2.97745 1.03053 0
      vertex 2.97745 1.03053 10
      vertex 3.17757 0.78862 10
    endloop
  endfacet
  facet normal 0.844321 0.535838 0
    outer loop
      vertex 2.80922 1.29561 0
      vertex 2.97745 1.03053 10
      vertex 2.97745 1.03053 0
    endloop
  endfacet
  facet normal 0.844321 0.535838 -0
    outer loop
      vertex 2.80922 1.29561 0
      vertex 2.80922 1.29561 10
      vertex 2.97745 1.03053 10
    endloop
  endfacet
  facet normal 0.904831 0.425771 0
    outer loop
      vertex 2.67555 1.57968 0
      vertex 2.80922 1.29561 10
      vertex 2.80922 1.29561 0
    endloop
  endfacet
  facet normal 0.904831 0.425771 -0
    outer loop
      vertex 2.67555 1.57968 0
      vertex 2.67555 1.57968 10
      vertex 2.80922 1.29561 10
    endloop
  endfacet
  facet normal 0.951064 0.308995 0
    outer loop
      vertex 2.57854 1.87827 0
      vertex 2.67555 1.57968 10
      vertex 2.67555 1.57968 0
    endloop
  endfacet
  facet normal 0.951064 0.308995 -0
    outer loop
      vertex 2.57854 1.87827 0
      vertex 2.57854 1.87827 10
      vertex 2.67555 1.57968 10
    endloop
  endfacet
  facet normal 0.982281 0.187417 0
    outer loop
      vertex 2.5197 2.18666 0
      vertex 2.57854 1.87827 10
      vertex 2.57854 1.87827 0
    endloop
  endfacet
  facet normal 0.982281 0.187417 -0
    outer loop
      vertex 2.5197 2.18666 0
      vertex 2.5197 2.18666 10
      vertex 2.57854 1.87827 10
    endloop
  endfacet
  facet normal 0.998029 0.0627471 0
    outer loop
      vertex 2.5 2.5 0
      vertex 2.5197 2.18666 10
      vertex 2.5197 2.18666 0
    endloop
  endfacet
  facet normal 0.998029 0.0627471 -0
    outer loop
      vertex 2.5 2.5 0
      vertex 2.5 2.5 10
      vertex 2.5197 2.18666 10
    endloop
  endfacet
  facet normal 0 1 0
    outer loop
      vertex 0 2.5 0
      vertex 2.5 2.5 10
      vertex 2.5 2.5 0
    endloop
  endfacet
  facet normal 0 1 0
    outer loop
      vertex 0 2.5 0
      vertex 0 2.5 10
      vertex 2.5 2.5 10
    endloop
  endfacet
  facet normal -1 0 0
    outer loop
      vertex 0 -2.5 0
      vertex 0 2.5 10
      vertex 0 2.5 0
    endloop
  endfacet
  facet normal -1 0 0
    outer loop
      vertex 0 -2.5 0
      vertex 0 -2.5 10
      vertex 0 2.5 10
    endloop
  endfacet
  facet normal 0 -1 0
    outer loop
      vertex 5 -2.5 0
      vertex 0 -2.5 10
      vertex 0 -2.5 0
    endloop
  endfacet
  facet normal 0 -1 0
    outer loop
      vertex 5 -2.5 0
      vertex 5 -2.5 10
      vertex 0 -2.5 10
    endloop
  endfacet
  facet normal 1 0 0
    outer loop
      vertex 5 0.00492859 0
      vertex 5 -2.5 10
      vertex 5 -2.5 0
    endloop
  endfacet
  facet normal 1 0 -0
    outer loop
      vertex 5 0.00492859 0
      vertex 5 0.00492859 10
      vertex 5 -2.5 10
    endloop
  endfacet
endsolid OpenSCAD_Model
