solid OpenSCAD_Model
  facet normal 0 0 -1
    outer loop
      vertex -20 0 0
      vertex 20 20 0
      vertex 20 0 0
    endloop
  endfacet
  facet normal -0 0 -1
    outer loop
      vertex 20 20 0
      vertex -20 0 0
      vertex -20 20 0
    endloop
  endfacet
  facet normal 0 -1 0
    outer loop
      vertex -20 0 0
      vertex 0.2 0 40
      vertex -0.2 0 40
    endloop
  endfacet
  facet normal 0 -1 -0
    outer loop
      vertex 0.2 0 40
      vertex -20 0 0
      vertex 20 0 0
    endloop
  endfacet
  facet normal -0.896212 0 0.443625
    outer loop
      vertex -20 0 0
      vertex -0.2 0.2 40
      vertex -20 20 0
    endloop
  endfacet
  facet normal -0.896212 0 0.443625
    outer loop
      vertex -0.2 0.2 40
      vertex -20 0 0
      vertex -0.2 0 40
    endloop
  endfacet
  facet normal -0 0 1
    outer loop
      vertex -0.2 0.2 40
      vertex 0.2 0 40
      vertex 0.2 0.2 40
    endloop
  endfacet
  facet normal 0 0 1
    outer loop
      vertex 0.2 0 40
      vertex -0.2 0.2 40
      vertex -0.2 0 40
    endloop
  endfacet
  facet normal 0.896212 0 0.443625
    outer loop
      vertex 20 0 0
      vertex 0.2 0.2 40
      vertex 0.2 0 40
    endloop
  endfacet
  facet normal 0.896212 0 0.443625
    outer loop
      vertex 0.2 0.2 40
      vertex 20 0 0
      vertex 20 20 0
    endloop
  endfacet
  facet normal 0 0.896212 0.443625
    outer loop
      vertex 20 20 0
      vertex -0.2 0.2 40
      vertex 0.2 0.2 40
    endloop
  endfacet
  facet normal 0 0.896212 0.443625
    outer loop
      vertex -0.2 0.2 40
      vertex 20 20 0
      vertex -20 20 0
    endloop
  endfacet
endsolid OpenSCAD_Model
